<svg xmlns="http://www.w3.org/2000/svg" width="36" height="35" viewBox="0 0 36 35">
  <path id="Accordion_" data-name="Accordion +" d="M-547.5-4036h-1a17.386,17.386,0,0,1-12.375-5.125A17.385,17.385,0,0,1-566-4053.5a17.386,17.386,0,0,1,5.126-12.375A17.386,17.386,0,0,1-548.5-4071h1a17.386,17.386,0,0,1,12.375,5.126A17.386,17.386,0,0,1-530-4053.5a17.384,17.384,0,0,1-5.126,12.374A17.386,17.386,0,0,1-547.5-4036Zm-1.531-16.032v7.969h2v-7.969h7.968v-2h-7.968V-4062h-2v7.968H-557v2Z" transform="translate(566 4071)" fill="#000"/>
</svg>
