<svg width="36" height="36" viewBox="0 0 36 36" fill="none" xmlns="http://www.w3.org/2000/svg">
<g clip-path="url(#clip0_212_412)">
<path d="M17.5001 35.668C7.80006 35.668 6.10352e-05 27.868 6.10352e-05 18.168C6.10352e-05 8.46797 7.80006 0.667969 17.5001 0.667969H18.5001C28.2001 0.667969 36.0001 8.46797 36.0001 18.168C36.0001 27.868 28.2001 35.668 18.5001 35.668H17.5001ZM6.20006 6.86797C3.20006 9.86797 1.50006 13.968 1.50006 18.168C1.50006 22.368 3.20006 26.468 6.20006 29.468C9.20006 32.468 13.3001 34.168 17.5001 34.168H18.5001C22.7001 34.168 26.8001 32.468 29.8001 29.468C32.8001 26.468 34.5001 22.368 34.5001 18.168C34.5001 13.968 32.8001 9.86797 29.8001 6.86797C26.8001 3.86797 22.7001 2.16797 18.5001 2.16797H17.5001C13.3001 2.16797 9.20006 3.86797 6.20006 6.86797ZM19.1001 25.268L25.1001 18.968H8.90006V17.468H25.1001L19.1001 11.168L20.2001 10.168L27.9001 18.268L20.2001 26.368L19.1001 25.368V25.268Z" fill="#FFFDF7"/>
</g>
<defs>
<clipPath id="clip0_212_412">
<rect width="36" height="35" fill="white" transform="translate(6.10352e-05 0.667969)"/>
</clipPath>
</defs>
</svg>
